<svg width="48" height="48" viewBox="0 0 48 48" fill="none" xmlns="http://www.w3.org/2000/svg">
<g style="mix-blend-mode:luminosity">
<path d="M43.2742 31.3313C43.2742 31.5565 43.226 31.7796 43.1323 31.9877C43.0386 32.1958 42.9013 32.3849 42.7281 32.5442L34.3769 40.2258C33.9069 40.6581 33.1034 40.3518 33.1034 39.7406V22.528L43.1582 13.3312H43.2742V31.3313" fill="#E83860"/>
<path d="M36.6101 7.20112C36.5408 7.13736 36.4586 7.08678 36.3681 7.05227C36.2776 7.01776 36.1805 7 36.0825 7C35.9846 7 35.8875 7.01776 35.797 7.05227C35.7065 7.08678 35.6243 7.13736 35.555 7.20112L23.1371 18.6233H22.9647V31.5151L23.1371 31.8536L33.1034 22.6865L43.2742 13.3312L36.6101 7.20112Z" fill="#DFC586"/>
<path d="M3 31.3313C3 31.7864 3.19631 32.2224 3.54612 32.5442L11.8973 40.2258C12.3673 40.6581 13.1708 40.3518 13.1708 39.7406V22.528L3.11572 13.3312H3V31.3313" fill="#327787"/>
<path d="M10.7192 7.20116C10.6499 7.13743 10.5677 7.08688 10.4772 7.05239C10.3867 7.0179 10.2896 7.00015 10.1917 7.00015C10.0937 7.00015 9.99669 7.0179 9.90618 7.05239C9.81567 7.08688 9.73342 7.13743 9.66415 7.20116L3 13.3312L13.1708 22.6865L23.1371 31.8534V18.6234L10.7192 7.20116Z" fill="#8ABB9C"/>
</g>
</svg>
