<svg width="12" height="11" viewBox="0 0 12 11" fill="none" xmlns="http://www.w3.org/2000/svg">
<path d="M3.09375 11H0.914062V3.99219H3.09375V11ZM1.99219 3.05469C1.3125 3.05469 0.75 2.46875 0.75 1.76562C0.75 0.804688 1.78125 0.195312 2.625 0.6875C3.02344 0.898437 3.25781 1.32031 3.25781 1.76562C3.25781 2.46875 2.69531 3.05469 1.99219 3.05469ZM11.2266 11H9.07031V7.60156C9.07031 6.78125 9.04688 5.75 7.92188 5.75C6.79688 5.75 6.63281 6.61719 6.63281 7.53125V11H4.45312V3.99219H6.53906V4.95312H6.5625C6.86719 4.41406 7.57031 3.82812 8.625 3.82812C10.8281 3.82812 11.25 5.28125 11.25 7.15625V11H11.2266Z" fill="#1F2933"/>
</svg>
