<svg width="475" height="842" viewBox="0 0 475 842" fill="none" xmlns="http://www.w3.org/2000/svg">
<rect width="188" height="158" rx="36" fill="#7B8794"/>
<path d="M54.25 63.25H49.75C45.1562 63.25 41.5 66.9531 41.5 71.5C41.5 72.3438 42.1562 73 43 73H61C61.7969 73 62.5 72.3438 62.5 71.5C62.5 66.9531 58.7969 63.25 54.25 63.25ZM43.75 70.75C44.125 67.7969 46.6562 65.5 49.75 65.5H54.25C57.2969 65.5 59.8281 67.7969 60.2031 70.75H43.75ZM52 61C55.2812 61 58 58.3281 58 55C58 51.7188 55.2812 49 52 49C48.6719 49 46 51.7188 46 55C46 58.3281 48.6719 61 52 61ZM52 51.25C54.0625 51.25 55.75 52.9375 55.75 55C55.75 57.1094 54.0625 58.75 52 58.75C49.8906 58.75 48.25 57.1094 48.25 55C48.25 52.9375 49.8906 51.25 52 51.25Z" fill="white"/>
<path d="M47.9 101.22C51.56 101.22 53.88 99.26 54.5 95.62H52.76C52.22 98.26 50.52 99.68 47.9 99.68C44.76 99.68 42.82 97.54 42.82 93.96C42.82 90.5 44.76 88.32 47.9 88.32C50.44 88.32 52.24 89.82 52.76 92.38H54.5C53.9 88.86 51.46 86.78 47.9 86.78C43.6 86.78 41.06 89.8 41.06 93.96C41.06 98.2 43.6 101.22 47.9 101.22ZM60.8164 101.22C62.2764 101.22 63.5564 100.6 64.2564 99.4L64.3964 101H65.7164V90.4H64.0564V96.84C64.0364 98.44 62.9564 99.76 60.9764 99.76C59.4764 99.76 58.4164 98.94 58.4164 97.42V90.4H56.7564V97.48C56.7564 99.64 58.2364 101.22 60.8164 101.22ZM72.4308 101.22C75.0108 101.22 76.3708 100.1 76.3708 98.24C76.3708 96.48 75.2108 95.82 73.2708 95.18L71.8308 94.7C70.9508 94.4 69.7908 94.18 69.7908 93.08C69.7908 92.16 70.5508 91.58 71.8508 91.58C73.2908 91.58 74.3308 92.3 74.5108 93.78H76.1308C75.8708 91.42 74.2508 90.16 71.9108 90.16C69.5908 90.16 68.1908 91.32 68.1908 93.12C68.1908 95.04 69.7508 95.52 71.3108 96.04L72.8508 96.56C73.9508 96.94 74.7308 97.16 74.7308 98.16C74.7308 99.22 74.0108 99.8 72.5108 99.8C70.9108 99.8 69.6508 99.04 69.5308 97.66H67.9108C68.0508 99.9 69.9108 101.22 72.4308 101.22ZM83.6888 101V99.6H82.5088C81.5288 99.6 81.0088 99.04 81.0088 97.98V91.8H83.8688V90.4H81.0088V86.78H79.3488V90.4H77.3888V91.8H79.3488V97.98C79.3488 99.94 80.4488 101 82.5088 101H83.6888ZM90.2611 101.22C93.2411 101.22 95.4611 99.26 95.4611 95.6C95.4611 92.6 93.6411 90.16 90.2611 90.16C87.3811 90.16 85.0611 92.06 85.0611 95.6C85.0611 98.8 86.8611 101.22 90.2611 101.22ZM90.2611 99.78C88.3411 99.78 86.7611 98.32 86.7611 95.6C86.7611 93.22 88.1411 91.6 90.2611 91.6C92.3811 91.6 93.7611 93.22 93.7611 95.6C93.7611 97.9 92.5211 99.78 90.2611 99.78ZM99.3223 101V94.56C99.3423 92.94 100.502 91.62 102.482 91.62C103.902 91.62 104.782 92.54 104.782 93.96V101H106.422V94.56C106.442 92.94 107.602 91.62 109.582 91.62C111.002 91.62 111.882 92.54 111.882 93.96V101H113.542V93.9C113.542 91.74 112.102 90.16 109.862 90.16C108.242 90.16 106.782 91.02 106.102 92.26C105.562 90.98 104.362 90.16 102.762 90.16C101.242 90.16 99.8623 90.9 99.1423 92.04L98.9823 90.4H97.6623V101H99.3223ZM120.849 101.22C123.269 101.22 124.989 99.84 125.469 97.66H123.849C123.409 99.04 122.329 99.78 120.849 99.78C118.709 99.78 117.389 98.24 117.289 95.98H125.509V95.52C125.449 92.12 123.569 90.16 120.649 90.16C117.969 90.16 115.629 92.12 115.629 95.74C115.629 98.92 117.709 101.22 120.849 101.22ZM117.389 94.6C117.729 92.7 118.969 91.6 120.649 91.6C122.349 91.6 123.469 92.74 123.769 94.6H117.389ZM129.382 101V95.44C129.382 93.26 130.682 91.98 132.922 91.98H133.282V90.34H132.922C131.162 90.34 129.922 91.06 129.242 92.42L129.042 90.4H127.722V101H129.382Z" fill="white"/>
<path opacity="0.2" d="M238.685 97.0124L257 78.9997M257 78.9997C252.406 74.4946 243.279 65.4918 238.686 60.9866M257 78.9997L211 79" stroke="#1F2933" stroke-width="2"/>
<rect x="285" width="188" height="158" rx="36" fill="#7B8794"/>
<path d="M328 49C328.516 49 328.984 49.4219 329.078 49.9375L329.172 50.5H348.859C349.844 50.5 350.594 51.4844 350.312 52.4219L347.781 61.4219C347.594 62.0781 347.031 62.5 346.328 62.5H331.469L331.891 64.75H346.375C346.984 64.75 347.5 65.2656 347.5 65.875C347.5 66.5312 346.984 67 346.375 67H330.953C330.438 67 329.969 66.625 329.875 66.1094L327.062 51.25H324.625C323.969 51.25 323.5 50.7812 323.5 50.125C323.5 49.5156 323.969 49 324.625 49H328ZM345.766 60.25L347.875 52.75H329.641L331.047 60.25H345.766ZM329.5 70.75C329.5 69.5312 330.484 68.5 331.75 68.5C332.969 68.5 334 69.5312 334 70.75C334 72.0156 332.969 73 331.75 73C330.484 73 329.5 72.0156 329.5 70.75ZM347.5 70.75C347.5 72.0156 346.469 73 345.25 73C343.984 73 343 72.0156 343 70.75C343 69.5312 343.984 68.5 345.25 68.5C346.469 68.5 347.5 69.5312 347.5 70.75Z" fill="white"/>
<path d="M328.38 101V89.96L332.92 101H334.54L339.1 89.92V101H340.78V87H338.66L333.74 99L328.8 87H326.7V101H328.38ZM348.55 101.22C350.97 101.22 352.69 99.84 353.17 97.66H351.55C351.11 99.04 350.03 99.78 348.55 99.78C346.41 99.78 345.09 98.24 344.99 95.98H353.21V95.52C353.15 92.12 351.27 90.16 348.35 90.16C345.67 90.16 343.33 92.12 343.33 95.74C343.33 98.92 345.41 101.22 348.55 101.22ZM345.09 94.6C345.43 92.7 346.67 91.6 348.35 91.6C350.05 91.6 351.17 92.74 351.47 94.6H345.09ZM357.084 101V95.44C357.084 93.26 358.384 91.98 360.624 91.98H360.984V90.34H360.624C358.864 90.34 357.624 91.06 356.944 92.42L356.744 90.4H355.424V101H357.084ZM367.167 101.22C369.907 101.22 371.667 99.6 371.967 96.86H370.347C370.047 98.7 368.887 99.78 367.187 99.78C365.207 99.78 363.567 98.34 363.567 95.64C363.567 93.14 364.967 91.6 367.067 91.6C368.847 91.6 370.067 92.72 370.347 94.48H371.967C371.667 91.76 369.767 90.16 367.107 90.16C364.227 90.16 361.887 92.08 361.887 95.64C361.887 98.7 363.727 101.22 367.167 101.22ZM375.895 101V94.56C375.915 92.94 377.075 91.62 379.075 91.62C380.575 91.62 381.535 92.56 381.535 94.04V101H383.195V93.98C383.195 91.64 381.675 90.16 379.395 90.16C377.955 90.16 376.655 90.8 375.895 91.76V86H374.235V101H375.895ZM389.246 101.16C391.086 101.16 392.286 100.4 392.906 99.18V99.5C392.906 100.48 393.506 101 394.646 101H395.586V99.64H394.986C394.626 99.64 394.446 99.46 394.446 99.12V93.96C394.446 91.72 392.766 90.16 390.146 90.16C387.626 90.16 385.746 91.62 385.546 93.7H387.186C387.366 92.44 388.566 91.58 390.106 91.58C391.706 91.58 392.806 92.52 392.826 93.86C392.806 94.72 391.406 94.7 389.786 94.86C387.666 95.08 385.306 95.54 385.306 97.98C385.306 99.92 386.846 101.16 389.246 101.16ZM389.486 99.74C387.966 99.74 386.966 99.04 386.966 97.94C386.966 96.58 388.426 96.38 389.886 96.22C391.186 96.08 392.366 95.96 392.826 95.34V96.72C392.826 98.48 391.466 99.74 389.486 99.74ZM399.138 101V94.56C399.158 92.94 400.318 91.62 402.218 91.62C403.818 91.62 404.778 92.56 404.778 94.04V101H406.438V93.98C406.438 91.64 404.918 90.16 402.638 90.16C401.058 90.16 399.678 90.9 398.958 92.02L398.798 90.4H397.478V101H399.138ZM414.395 101V99.6H413.215C412.235 99.6 411.715 99.04 411.715 97.98V91.8H414.575V90.4H411.715V86.78H410.055V90.4H408.095V91.8H410.055V97.98C410.055 99.94 411.155 101 413.215 101H414.395Z" fill="white"/>
<rect y="228" width="188" height="158" rx="36" fill="#7B8794"/>
<path d="M62.875 287.863C62.2188 287.863 61.75 288.379 61.75 288.988C61.75 291.707 59.5469 293.863 56.875 293.863H46.7969L49.75 290.91C50.2188 290.488 50.2188 289.785 49.75 289.363C49.3281 288.895 48.625 288.895 48.1562 289.363L43.2812 294.238C42.8594 294.66 42.8594 295.363 43.2812 295.785L48.1562 300.66C48.3906 300.895 48.6719 300.988 49 300.988C49.2812 300.988 49.5625 300.895 49.75 300.66C50.2188 300.238 50.2188 299.535 49.75 299.113L46.7969 296.113H56.875C60.7656 296.113 64 292.926 64 288.988C64 288.379 63.4844 287.863 62.875 287.863ZM47.125 284.113H57.1562L54.2031 287.113C53.7344 287.535 53.7344 288.238 54.2031 288.66C54.3906 288.895 54.6719 288.988 55 288.988C55.2812 288.988 55.5625 288.895 55.75 288.66L60.625 283.785C61.0938 283.363 61.0938 282.66 60.625 282.238L55.75 277.363C55.3281 276.895 54.625 276.895 54.2031 277.363C53.7344 277.785 53.7344 278.488 54.2031 278.91L57.1562 281.863H47.125C43.1875 281.863 40 285.098 40 288.988C40 289.645 40.4688 290.113 41.125 290.113C41.7344 290.113 42.25 289.645 42.25 288.988C42.25 286.316 44.4062 284.113 47.125 284.113Z" fill="white"/>
<path d="M47.68 329.208C43.82 329.208 41.06 326.368 41.06 321.948C41.06 317.788 43.6 314.768 47.86 314.768C51.42 314.768 53.88 316.928 54.46 320.368H52.72C52.2 317.808 50.42 316.308 47.86 316.308C44.76 316.308 42.82 318.448 42.82 321.948C42.82 325.488 44.8 327.668 47.68 327.668C50.3 327.668 51.96 325.888 51.96 323.348H47.24V321.908H52.16C53.62 321.908 54.4 322.648 54.4 324.008V328.988H52.9V324.208H52.86C52.6 327.288 50.78 329.208 47.68 329.208ZM60.5327 329.148C58.1327 329.148 56.5927 327.908 56.5927 325.968C56.5927 323.528 58.9527 323.068 61.0727 322.848C62.6927 322.688 64.0927 322.708 64.1127 321.848C64.0927 320.508 62.9927 319.568 61.3927 319.568C59.8527 319.568 58.6527 320.428 58.4727 321.688H56.8327C57.0327 319.608 58.9127 318.148 61.4327 318.148C64.0527 318.148 65.7327 319.708 65.7327 321.948V327.108C65.7327 327.448 65.9127 327.628 66.2727 327.628H66.8727V328.988H65.9327C64.7927 328.988 64.1927 328.468 64.1927 327.488V327.168C63.5727 328.388 62.3727 329.148 60.5327 329.148ZM60.7727 327.728C62.7527 327.728 64.1127 326.468 64.1127 324.708V323.328C63.6527 323.948 62.4727 324.068 61.1727 324.208C59.7127 324.368 58.2527 324.568 58.2527 325.928C58.2527 327.028 59.2527 327.728 60.7727 327.728ZM74.0103 328.988H72.8303C70.7703 328.988 69.6703 327.928 69.6703 325.968V319.788H67.7103V318.388H69.6703V314.768H71.3303V318.388H74.1903V319.788H71.3303V325.968C71.3303 327.028 71.8503 327.588 72.8303 327.588H74.0103V328.988ZM80.6027 329.208C77.4627 329.208 75.3827 326.908 75.3827 323.728C75.3827 320.108 77.7227 318.148 80.4027 318.148C83.3227 318.148 85.2027 320.108 85.2627 323.508V323.968H77.0427C77.1427 326.228 78.4627 327.768 80.6027 327.768C82.0827 327.768 83.1627 327.028 83.6027 325.648H85.2227C84.7427 327.828 83.0227 329.208 80.6027 329.208ZM77.1427 322.588H83.5227C83.2227 320.728 82.1027 319.588 80.4027 319.588C78.7227 319.588 77.4827 320.688 77.1427 322.588ZM91.3594 328.988H89.5194L86.3794 318.388H88.0794L90.5194 326.928L92.8794 318.388H94.3194L96.6794 326.888L99.0994 318.388H100.799L97.6594 328.988H95.8394L93.5994 320.908L91.3594 328.988ZM105.907 329.148C103.507 329.148 101.967 327.908 101.967 325.968C101.967 323.528 104.327 323.068 106.447 322.848C108.067 322.688 109.467 322.708 109.487 321.848C109.467 320.508 108.367 319.568 106.767 319.568C105.227 319.568 104.027 320.428 103.847 321.688H102.207C102.407 319.608 104.287 318.148 106.807 318.148C109.427 318.148 111.107 319.708 111.107 321.948V327.108C111.107 327.448 111.287 327.628 111.647 327.628H112.247V328.988H111.307C110.167 328.988 109.567 328.468 109.567 327.488V327.168C108.947 328.388 107.747 329.148 105.907 329.148ZM106.147 327.728C108.127 327.728 109.487 326.468 109.487 324.708V323.328C109.027 323.948 107.847 324.068 106.547 324.208C105.087 324.368 103.627 324.568 103.627 325.928C103.627 327.028 104.627 327.728 106.147 327.728ZM114.91 332.988H113.21V331.588H114.91C115.99 331.588 116.45 331.208 116.69 330.568L117.27 328.988H116.87L112.67 318.388H114.45L117.89 327.328L121.21 318.388H122.91L118.15 331.208C117.71 332.368 116.73 332.988 114.91 332.988Z" fill="white"/>
<path opacity="0.2" d="M238.685 325.012L257 307M257 307C252.406 302.495 243.279 293.492 238.686 288.987M257 307L211 307" stroke="#1F2933" stroke-width="2"/>
<rect x="285" y="228" width="188" height="158" rx="36" fill="#7B8794"/>
<path d="M348.156 269.047C348.672 269.328 349 269.844 349 270.406C349 271.297 348.25 272 347.359 272H326.594C325.703 272 325 271.297 325 270.406C325 269.844 325.281 269.328 325.797 269.047L336.438 263.141C336.766 263 337.188 263 337.516 263.141L348.156 269.047ZM335.5 269C335.5 268.203 336.156 267.5 337 267.5C337.797 267.5 338.5 268.203 338.5 269C338.5 269.281 338.406 269.562 338.266 269.75H344.828L337 265.438L329.125 269.75H335.688C335.547 269.562 335.5 269.281 335.5 269ZM328 273.5H330.25V281H333.25V273.5H335.5V281H338.5V273.5H340.75V281H343.75V273.5H346V281H346.375C346.984 281 347.5 281.516 347.5 282.125C347.5 282.781 346.984 283.25 346.375 283.25H328C327.344 283.25 326.875 282.781 326.875 282.125C326.875 281.516 327.344 281 328 281V273.5ZM347.875 284.75C348.484 284.75 349 285.266 349 285.875C349 286.531 348.484 287 347.875 287H326.5C325.844 287 325.375 286.531 325.375 285.875C325.375 285.266 325.844 284.75 326.5 284.75H347.875Z" fill="white"/>
<path d="M327.3 315L328.94 311H335.42L337.06 315H338.8L333.02 301H331.32L325.56 315H327.3ZM332.18 303.14L334.78 309.48H329.58L332.18 303.14ZM345.095 315.22C347.835 315.22 349.595 313.6 349.895 310.86H348.275C347.975 312.7 346.815 313.78 345.115 313.78C343.135 313.78 341.495 312.34 341.495 309.64C341.495 307.14 342.895 305.6 344.995 305.6C346.775 305.6 347.995 306.72 348.275 308.48H349.895C349.595 305.76 347.695 304.16 345.035 304.16C342.155 304.16 339.815 306.08 339.815 309.64C339.815 312.7 341.655 315.22 345.095 315.22ZM361.724 319V304.4H360.404L360.224 306.24C359.504 304.96 358.084 304.16 356.364 304.16C353.524 304.16 351.564 306.4 351.564 309.64C351.564 312.94 353.544 315.22 356.384 315.22C358.004 315.22 359.324 314.46 360.064 313.24V319H361.724ZM356.644 313.78C354.664 313.78 353.284 312.08 353.284 309.64C353.284 307.24 354.704 305.58 356.744 305.58C358.704 305.58 360.064 307.22 360.064 309.6C360.064 312.06 358.664 313.78 356.644 313.78ZM368.376 315.22C369.836 315.22 371.116 314.6 371.816 313.4L371.956 315H373.276V304.4H371.616V310.84C371.596 312.44 370.516 313.76 368.536 313.76C367.036 313.76 365.976 312.94 365.976 311.42V304.4H364.316V311.48C364.316 313.64 365.796 315.22 368.376 315.22ZM376.871 302.62C377.571 302.62 378.091 302.08 378.091 301.38C378.091 300.68 377.571 300.16 376.871 300.16C376.171 300.16 375.631 300.68 375.631 301.38C375.631 302.08 376.171 302.62 376.871 302.62ZM377.691 315V304.4H376.031V315H377.691ZM382.096 315V309.44C382.096 307.26 383.396 305.98 385.636 305.98H385.996V304.34H385.636C383.876 304.34 382.636 305.06 381.956 306.42L381.756 304.4H380.436V315H382.096ZM388.767 302.62C389.467 302.62 389.987 302.08 389.987 301.38C389.987 300.68 389.467 300.16 388.767 300.16C388.067 300.16 387.527 300.68 387.527 301.38C387.527 302.08 388.067 302.62 388.767 302.62ZM389.587 315V304.4H387.927V315H389.587ZM393.992 315V308.56C394.012 306.94 395.172 305.62 397.072 305.62C398.672 305.62 399.632 306.56 399.632 308.04V315H401.292V307.98C401.292 305.64 399.772 304.16 397.492 304.16C395.912 304.16 394.532 304.9 393.812 306.02L393.652 304.4H392.332V315H393.992ZM408.544 319.24C411.704 319.24 413.504 317.4 413.504 314.72V304.4H412.204L412.024 306.24C411.304 304.96 409.924 304.16 408.224 304.16C405.424 304.16 403.384 306.36 403.384 309.54C403.384 312.66 405.404 314.82 408.224 314.82C409.844 314.82 411.124 314.1 411.864 313V314.72C411.864 316.54 410.724 317.84 408.544 317.84C406.684 317.84 405.404 316.88 405.404 315.62H403.744C403.744 317.86 405.684 319.24 408.544 319.24ZM408.464 313.38C406.484 313.38 405.104 311.8 405.104 309.52C405.104 307.2 406.484 305.6 408.464 305.6C410.464 305.6 411.864 307.2 411.864 309.48C411.864 311.78 410.464 313.38 408.464 313.38ZM333.28 343C335.82 343 337.58 341.44 337.58 339.18C337.58 337.46 336.38 336.14 334.56 335.78C336.2 335.26 337.26 334.02 337.26 332.52C337.26 330.44 335.56 329 333.12 329H326.7V343H333.28ZM328.36 330.54H333.28C334.62 330.54 335.56 331.42 335.56 332.7C335.56 334.12 334.52 335.12 333.02 335.12H328.36V330.54ZM328.36 336.62H333.12C334.62 336.62 335.84 337.44 335.84 339C335.84 340.46 334.86 341.46 333.46 341.46H328.36V336.62ZM343.423 343.16C345.263 343.16 346.463 342.4 347.083 341.18V341.5C347.083 342.48 347.683 343 348.823 343H349.763V341.64H349.163C348.803 341.64 348.623 341.46 348.623 341.12V335.96C348.623 333.72 346.943 332.16 344.323 332.16C341.803 332.16 339.923 333.62 339.723 335.7H341.363C341.543 334.44 342.743 333.58 344.283 333.58C345.883 333.58 346.983 334.52 347.003 335.86C346.983 336.72 345.583 336.7 343.963 336.86C341.843 337.08 339.483 337.54 339.483 339.98C339.483 341.92 341.023 343.16 343.423 343.16ZM343.663 341.74C342.143 341.74 341.143 341.04 341.143 339.94C341.143 338.58 342.603 338.38 344.063 338.22C345.363 338.08 346.543 337.96 347.003 337.34V338.72C347.003 340.48 345.643 341.74 343.663 341.74ZM353.314 343V336.56C353.334 334.94 354.494 333.62 356.394 333.62C357.994 333.62 358.954 334.56 358.954 336.04V343H360.614V335.98C360.614 333.64 359.094 332.16 356.814 332.16C355.234 332.16 353.854 332.9 353.134 334.02L352.974 332.4H351.654V343H353.314ZM364.967 343V339.64L367.167 337.42L370.767 343H372.707L368.307 336.26L372.127 332.4H370.127L364.967 337.62V328H363.307V343H364.967Z" fill="white"/>
<rect x="2" y="456" width="188" height="158" rx="36" fill="#7B8794"/>
<path d="M42 509.5C42 507.859 43.3125 506.5 45 506.5H63C64.6406 506.5 66 507.859 66 509.5V524.5C66 526.188 64.6406 527.5 63 527.5H45C43.3125 527.5 42 526.188 42 524.5V509.5ZM63.75 515.5H44.25V524.5C44.25 524.922 44.5781 525.25 45 525.25H63C63.375 525.25 63.75 524.922 63.75 524.5V515.5ZM46.5 512.5C47.2969 512.5 48 511.844 48 511C48 510.203 47.2969 509.5 46.5 509.5C45.6562 509.5 45 510.203 45 511C45 511.844 45.6562 512.5 46.5 512.5ZM51 509.5C50.1562 509.5 49.5 510.203 49.5 511C49.5 511.844 50.1562 512.5 51 512.5C51.7969 512.5 52.5 511.844 52.5 511C52.5 510.203 51.7969 509.5 51 509.5ZM55.5 512.5C56.2969 512.5 57 511.844 57 511C57 510.203 56.2969 509.5 55.5 509.5C54.6562 509.5 54 510.203 54 511C54 511.844 54.6562 512.5 55.5 512.5Z" fill="white"/>
<path d="M45.38 555.5V549.96H50.32C52.8 549.96 54.8 548.44 54.8 545.6C54.8 543.36 53.24 541.5 50.32 541.5H43.7V555.5H45.38ZM45.38 543.04H50.4C51.88 543.04 53.08 543.94 53.08 545.6C53.08 547.16 52.14 548.42 50.4 548.42H45.38V543.04ZM58.6437 555.5V549.94C58.6437 547.76 59.9437 546.48 62.1837 546.48H62.5438V544.84H62.1837C60.4237 544.84 59.1837 545.56 58.5037 546.92L58.3037 544.9H56.9837V555.5H58.6437ZM68.6464 555.72C71.6264 555.72 73.8464 553.76 73.8464 550.1C73.8464 547.1 72.0264 544.66 68.6464 544.66C65.7664 544.66 63.4464 546.56 63.4464 550.1C63.4464 553.3 65.2464 555.72 68.6464 555.72ZM68.6464 554.28C66.7264 554.28 65.1464 552.82 65.1464 550.1C65.1464 547.72 66.5264 546.1 68.6464 546.1C70.7664 546.1 72.1464 547.72 72.1464 550.1C72.1464 552.4 70.9064 554.28 68.6464 554.28ZM80.7877 555.72C83.5277 555.72 85.2877 554.1 85.5877 551.36H83.9677C83.6677 553.2 82.5077 554.28 80.8077 554.28C78.8277 554.28 77.1877 552.84 77.1877 550.14C77.1877 547.64 78.5877 546.1 80.6877 546.1C82.4677 546.1 83.6877 547.22 83.9677 548.98H85.5877C85.2877 546.26 83.3877 544.66 80.7277 544.66C77.8477 544.66 75.5077 546.58 75.5077 550.14C75.5077 553.2 77.3477 555.72 80.7877 555.72ZM92.4764 555.72C94.8964 555.72 96.6164 554.34 97.0964 552.16H95.4764C95.0364 553.54 93.9564 554.28 92.4764 554.28C90.3364 554.28 89.0164 552.74 88.9164 550.48H97.1364V550.02C97.0764 546.62 95.1964 544.66 92.2764 544.66C89.5964 544.66 87.2564 546.62 87.2564 550.24C87.2564 553.42 89.3364 555.72 92.4764 555.72ZM89.0164 549.1C89.3564 547.2 90.5964 546.1 92.2764 546.1C93.9764 546.1 95.0964 547.24 95.3964 549.1H89.0164ZM103.31 555.72C105.89 555.72 107.25 554.6 107.25 552.74C107.25 550.98 106.09 550.32 104.15 549.68L102.71 549.2C101.83 548.9 100.67 548.68 100.67 547.58C100.67 546.66 101.43 546.08 102.73 546.08C104.17 546.08 105.21 546.8 105.39 548.28H107.01C106.75 545.92 105.13 544.66 102.79 544.66C100.47 544.66 99.0698 545.82 99.0698 547.62C99.0698 549.54 100.63 550.02 102.19 550.54L103.73 551.06C104.83 551.44 105.61 551.66 105.61 552.66C105.61 553.72 104.89 554.3 103.39 554.3C101.79 554.3 100.53 553.54 100.41 552.16H98.7898C98.9298 554.4 100.79 555.72 103.31 555.72ZM113.281 555.72C115.861 555.72 117.221 554.6 117.221 552.74C117.221 550.98 116.061 550.32 114.121 549.68L112.681 549.2C111.801 548.9 110.641 548.68 110.641 547.58C110.641 546.66 111.401 546.08 112.701 546.08C114.141 546.08 115.181 546.8 115.361 548.28H116.981C116.721 545.92 115.101 544.66 112.761 544.66C110.441 544.66 109.041 545.82 109.041 547.62C109.041 549.54 110.601 550.02 112.161 550.54L113.701 551.06C114.801 551.44 115.581 551.66 115.581 552.66C115.581 553.72 114.861 554.3 113.361 554.3C111.761 554.3 110.501 553.54 110.381 552.16H108.761C108.901 554.4 110.761 555.72 113.281 555.72ZM123.953 555.72C126.933 555.72 129.153 553.76 129.153 550.1C129.153 547.1 127.333 544.66 123.953 544.66C121.073 544.66 118.753 546.56 118.753 550.1C118.753 553.3 120.553 555.72 123.953 555.72ZM123.953 554.28C122.033 554.28 120.453 552.82 120.453 550.1C120.453 547.72 121.833 546.1 123.953 546.1C126.073 546.1 127.453 547.72 127.453 550.1C127.453 552.4 126.213 554.28 123.953 554.28ZM133.014 555.5V549.94C133.014 547.76 134.314 546.48 136.554 546.48H136.914V544.84H136.554C134.794 544.84 133.554 545.56 132.874 546.92L132.674 544.9H131.354V555.5H133.014Z" fill="white"/>
<path opacity="0.2" d="M240.685 553.012L259 535M259 535C254.406 530.495 245.279 521.492 240.686 516.987M259 535L213 535" stroke="#1F2933" stroke-width="2"/>
<rect x="287" y="456" width="188" height="158" rx="36" fill="#7B8794"/>
<path d="M334.875 506.75C335.484 506.75 336 507.266 336 507.875C336 508.531 335.484 509 334.875 509H332.625C331.969 509 331.5 508.531 331.5 507.875C331.5 507.266 331.969 506.75 332.625 506.75H334.875ZM343.875 506.75C344.484 506.75 345 507.266 345 507.875C345 508.531 344.484 509 343.875 509H338.625C337.969 509 337.5 508.531 337.5 507.875C337.5 507.266 337.969 506.75 338.625 506.75H343.875ZM351 492.5C352.641 492.5 354 493.859 354 495.5V510.5C354 512.188 352.641 513.5 351 513.5H330C328.312 513.5 327 512.188 327 510.5V495.5C327 493.859 328.312 492.5 330 492.5H351ZM351 494.75H330C329.578 494.75 329.25 495.125 329.25 495.5V497H351.75V495.5C351.75 495.125 351.375 494.75 351 494.75ZM351.75 501.5H329.25V510.5C329.25 510.922 329.578 511.25 330 511.25H351C351.375 511.25 351.75 510.922 351.75 510.5V501.5Z" fill="white"/>
<path d="M334.9 541.72C338.56 541.72 340.88 539.76 341.5 536.12H339.76C339.22 538.76 337.52 540.18 334.9 540.18C331.76 540.18 329.82 538.04 329.82 534.46C329.82 531 331.76 528.82 334.9 528.82C337.44 528.82 339.24 530.32 339.76 532.88H341.5C340.9 529.36 338.46 527.28 334.9 527.28C330.6 527.28 328.06 530.3 328.06 534.46C328.06 538.7 330.6 541.72 334.9 541.72ZM347.376 541.66C349.216 541.66 350.416 540.9 351.036 539.68V540C351.036 540.98 351.636 541.5 352.776 541.5H353.716V540.14H353.116C352.756 540.14 352.576 539.96 352.576 539.62V534.46C352.576 532.22 350.896 530.66 348.276 530.66C345.756 530.66 343.876 532.12 343.676 534.2H345.316C345.496 532.94 346.696 532.08 348.236 532.08C349.836 532.08 350.936 533.02 350.956 534.36C350.936 535.22 349.536 535.2 347.916 535.36C345.796 535.58 343.436 536.04 343.436 538.48C343.436 540.42 344.976 541.66 347.376 541.66ZM347.616 540.24C346.096 540.24 345.096 539.54 345.096 538.44C345.096 537.08 346.556 536.88 348.016 536.72C349.316 536.58 350.496 536.46 350.956 535.84V537.22C350.956 538.98 349.596 540.24 347.616 540.24ZM357.267 541.5V535.94C357.267 533.76 358.567 532.48 360.807 532.48H361.167V530.84H360.807C359.047 530.84 357.807 531.56 357.127 532.92L356.927 530.9H355.607V541.5H357.267ZM366.89 541.72C368.63 541.72 370.03 540.84 370.73 539.46L370.91 541.5H372.23V526.5H370.57V532.48C369.81 531.36 368.47 530.66 366.87 530.66C364.03 530.66 362.07 532.9 362.07 536.14C362.07 539.44 364.05 541.72 366.89 541.72ZM367.15 540.28C365.17 540.28 363.79 538.58 363.79 536.14C363.79 533.74 365.21 532.08 367.25 532.08C369.21 532.08 370.57 533.72 370.57 536.1C370.57 538.56 369.17 540.28 367.15 540.28ZM332.32 569.72C334.9 569.72 336.26 568.6 336.26 566.74C336.26 564.98 335.1 564.32 333.16 563.68L331.72 563.2C330.84 562.9 329.68 562.68 329.68 561.58C329.68 560.66 330.44 560.08 331.74 560.08C333.18 560.08 334.22 560.8 334.4 562.28H336.02C335.76 559.92 334.14 558.66 331.8 558.66C329.48 558.66 328.08 559.82 328.08 561.62C328.08 563.54 329.64 564.02 331.2 564.54L332.74 565.06C333.84 565.44 334.62 565.66 334.62 566.66C334.62 567.72 333.9 568.3 332.4 568.3C330.8 568.3 329.54 567.54 329.42 566.16H327.8C327.94 568.4 329.8 569.72 332.32 569.72ZM343.071 569.72C345.811 569.72 347.571 568.1 347.871 565.36H346.251C345.951 567.2 344.791 568.28 343.091 568.28C341.111 568.28 339.471 566.84 339.471 564.14C339.471 561.64 340.871 560.1 342.971 560.1C344.751 560.1 345.971 561.22 346.251 562.98H347.871C347.571 560.26 345.671 558.66 343.011 558.66C340.131 558.66 337.791 560.58 337.791 564.14C337.791 567.2 339.631 569.72 343.071 569.72ZM351.8 569.5V563.06C351.82 561.44 352.98 560.12 354.98 560.12C356.48 560.12 357.44 561.06 357.44 562.54V569.5H359.1V562.48C359.1 560.14 357.58 558.66 355.3 558.66C353.86 558.66 352.56 559.3 351.8 560.26V554.5H350.14V569.5H351.8ZM366.411 569.72C368.831 569.72 370.551 568.34 371.031 566.16H369.411C368.971 567.54 367.891 568.28 366.411 568.28C364.271 568.28 362.951 566.74 362.851 564.48H371.071V564.02C371.011 560.62 369.131 558.66 366.211 558.66C363.531 558.66 361.191 560.62 361.191 564.24C361.191 567.42 363.271 569.72 366.411 569.72ZM362.951 563.1C363.291 561.2 364.531 560.1 366.211 560.1C367.911 560.1 369.031 561.24 369.331 563.1H362.951ZM374.945 569.5V563.06C374.965 561.44 376.125 560.12 378.105 560.12C379.525 560.12 380.405 561.04 380.405 562.46V569.5H382.045V563.06C382.065 561.44 383.225 560.12 385.205 560.12C386.625 560.12 387.505 561.04 387.505 562.46V569.5H389.165V562.4C389.165 560.24 387.725 558.66 385.485 558.66C383.865 558.66 382.405 559.52 381.725 560.76C381.185 559.48 379.985 558.66 378.385 558.66C376.865 558.66 375.485 559.4 374.765 560.54L374.605 558.9H373.285V569.5H374.945ZM396.471 569.72C398.891 569.72 400.611 568.34 401.091 566.16H399.471C399.031 567.54 397.951 568.28 396.471 568.28C394.331 568.28 393.011 566.74 392.911 564.48H401.131V564.02C401.071 560.62 399.191 558.66 396.271 558.66C393.591 558.66 391.251 560.62 391.251 564.24C391.251 567.42 393.331 569.72 396.471 569.72ZM393.011 563.1C393.351 561.2 394.591 560.1 396.271 560.1C397.971 560.1 399.091 561.24 399.391 563.1H393.011ZM407.305 569.72C409.885 569.72 411.245 568.6 411.245 566.74C411.245 564.98 410.085 564.32 408.145 563.68L406.705 563.2C405.825 562.9 404.665 562.68 404.665 561.58C404.665 560.66 405.425 560.08 406.725 560.08C408.165 560.08 409.205 560.8 409.385 562.28H411.005C410.745 559.92 409.125 558.66 406.785 558.66C404.465 558.66 403.065 559.82 403.065 561.62C403.065 563.54 404.625 564.02 406.185 564.54L407.725 565.06C408.825 565.44 409.605 565.66 409.605 566.66C409.605 567.72 408.885 568.3 407.385 568.3C405.785 568.3 404.525 567.54 404.405 566.16H402.785C402.925 568.4 404.785 569.72 407.305 569.72Z" fill="white"/>
<rect x="140" y="684" width="188" height="158" rx="36" fill="#7B8794"/>
<path d="M187.125 723.875C187.125 723.5 187.453 723.125 187.875 723.125H190.125C190.5 723.125 190.875 723.5 190.875 723.875V726.125C190.875 726.547 190.5 726.875 190.125 726.875H187.875C187.453 726.875 187.125 726.547 187.125 726.125V723.875ZM196.125 723.125C196.5 723.125 196.875 723.5 196.875 723.875V726.125C196.875 726.547 196.5 726.875 196.125 726.875H193.875C193.453 726.875 193.125 726.547 193.125 726.125V723.875C193.125 723.5 193.453 723.125 193.875 723.125H196.125ZM187.125 729.875C187.125 729.5 187.453 729.125 187.875 729.125H190.125C190.5 729.125 190.875 729.5 190.875 729.875V732.125C190.875 732.547 190.5 732.875 190.125 732.875H187.875C187.453 732.875 187.125 732.547 187.125 732.125V729.875ZM196.125 729.125C196.5 729.125 196.875 729.5 196.875 729.875V732.125C196.875 732.547 196.5 732.875 196.125 732.875H193.875C193.453 732.875 193.125 732.547 193.125 732.125V729.875C193.125 729.5 193.453 729.125 193.875 729.125H196.125ZM183 722C183 720.359 184.312 719 186 719H198C199.641 719 201 720.359 201 722V740C201 741.688 199.641 743 198 743H186C184.312 743 183 741.688 183 740V722ZM185.25 722V740C185.25 740.422 185.578 740.75 186 740.75H189.75V737.75C189.75 736.531 190.734 735.5 192 735.5C193.219 735.5 194.25 736.531 194.25 737.75V740.75H198C198.375 740.75 198.75 740.422 198.75 740V722C198.75 721.625 198.375 721.25 198 721.25H186C185.578 721.25 185.25 721.625 185.25 722Z" fill="white"/>
<path d="M187.9 771.22C191.56 771.22 193.88 769.26 194.5 765.62H192.76C192.22 768.26 190.52 769.68 187.9 769.68C184.76 769.68 182.82 767.54 182.82 763.96C182.82 760.5 184.76 758.32 187.9 758.32C190.44 758.32 192.24 759.82 192.76 762.38H194.5C193.9 758.86 191.46 756.78 187.9 756.78C183.6 756.78 181.06 759.8 181.06 763.96C181.06 768.2 183.6 771.22 187.9 771.22ZM200.816 771.22C202.276 771.22 203.556 770.6 204.256 769.4L204.396 771H205.716V760.4H204.056V766.84C204.036 768.44 202.956 769.76 200.976 769.76C199.476 769.76 198.416 768.94 198.416 767.42V760.4H196.756V767.48C196.756 769.64 198.236 771.22 200.816 771.22ZM212.431 771.22C215.011 771.22 216.371 770.1 216.371 768.24C216.371 766.48 215.211 765.82 213.271 765.18L211.831 764.7C210.951 764.4 209.791 764.18 209.791 763.08C209.791 762.16 210.551 761.58 211.851 761.58C213.291 761.58 214.331 762.3 214.511 763.78H216.131C215.871 761.42 214.251 760.16 211.911 760.16C209.591 760.16 208.191 761.32 208.191 763.12C208.191 765.04 209.751 765.52 211.311 766.04L212.851 766.56C213.951 766.94 214.731 767.16 214.731 768.16C214.731 769.22 214.011 769.8 212.511 769.8C210.911 769.8 209.651 769.04 209.531 767.66H207.911C208.051 769.9 209.911 771.22 212.431 771.22ZM223.689 771V769.6H222.509C221.529 769.6 221.009 769.04 221.009 767.98V761.8H223.869V760.4H221.009V756.78H219.349V760.4H217.389V761.8H219.349V767.98C219.349 769.94 220.449 771 222.509 771H223.689ZM230.261 771.22C233.241 771.22 235.461 769.26 235.461 765.6C235.461 762.6 233.641 760.16 230.261 760.16C227.381 760.16 225.061 762.06 225.061 765.6C225.061 768.8 226.861 771.22 230.261 771.22ZM230.261 769.78C228.341 769.78 226.761 768.32 226.761 765.6C226.761 763.22 228.141 761.6 230.261 761.6C232.381 761.6 233.761 763.22 233.761 765.6C233.761 767.9 232.521 769.78 230.261 769.78ZM239.322 771V764.56C239.342 762.94 240.502 761.62 242.482 761.62C243.902 761.62 244.782 762.54 244.782 763.96V771H246.422V764.56C246.442 762.94 247.602 761.62 249.582 761.62C251.002 761.62 251.882 762.54 251.882 763.96V771H253.542V763.9C253.542 761.74 252.102 760.16 249.862 760.16C248.242 760.16 246.782 761.02 246.102 762.26C245.562 760.98 244.362 760.16 242.762 760.16C241.242 760.16 239.862 760.9 239.142 762.04L238.982 760.4H237.662V771H239.322ZM260.849 771.22C263.269 771.22 264.989 769.84 265.469 767.66H263.849C263.409 769.04 262.329 769.78 260.849 769.78C258.709 769.78 257.389 768.24 257.289 765.98H265.509V765.52C265.449 762.12 263.569 760.16 260.649 760.16C257.969 760.16 255.629 762.12 255.629 765.74C255.629 768.92 257.709 771.22 260.849 771.22ZM257.389 764.6C257.729 762.7 258.969 761.6 260.649 761.6C262.349 761.6 263.469 762.74 263.769 764.6H257.389ZM269.382 771V765.44C269.382 763.26 270.682 761.98 272.922 761.98H273.282V760.34H272.922C271.162 760.34 269.922 761.06 269.242 762.42L269.042 760.4H267.722V771H269.382ZM188.28 799C190.82 799 192.58 797.44 192.58 795.18C192.58 793.46 191.38 792.14 189.56 791.78C191.2 791.26 192.26 790.02 192.26 788.52C192.26 786.44 190.56 785 188.12 785H181.7V799H188.28ZM183.36 786.54H188.28C189.62 786.54 190.56 787.42 190.56 788.7C190.56 790.12 189.52 791.12 188.02 791.12H183.36V786.54ZM183.36 792.62H188.12C189.62 792.62 190.84 793.44 190.84 795C190.84 796.46 189.86 797.46 188.46 797.46H183.36V792.62ZM198.423 799.16C200.263 799.16 201.463 798.4 202.083 797.18V797.5C202.083 798.48 202.683 799 203.823 799H204.763V797.64H204.163C203.803 797.64 203.623 797.46 203.623 797.12V791.96C203.623 789.72 201.943 788.16 199.323 788.16C196.803 788.16 194.923 789.62 194.723 791.7H196.363C196.543 790.44 197.743 789.58 199.283 789.58C200.883 789.58 201.983 790.52 202.003 791.86C201.983 792.72 200.583 792.7 198.963 792.86C196.843 793.08 194.483 793.54 194.483 795.98C194.483 797.92 196.023 799.16 198.423 799.16ZM198.663 797.74C197.143 797.74 196.143 797.04 196.143 795.94C196.143 794.58 197.603 794.38 199.063 794.22C200.363 794.08 201.543 793.96 202.003 793.34V794.72C202.003 796.48 200.643 797.74 198.663 797.74ZM208.314 799V792.56C208.334 790.94 209.494 789.62 211.394 789.62C212.994 789.62 213.954 790.56 213.954 792.04V799H215.614V791.98C215.614 789.64 214.094 788.16 211.814 788.16C210.234 788.16 208.854 788.9 208.134 790.02L207.974 788.4H206.654V799H208.314ZM219.967 799V795.64L222.167 793.42L225.767 799H227.707L223.307 792.26L227.127 788.4H225.127L219.967 793.62V784H218.307V799H219.967Z" fill="white"/>
<path opacity="0.2" d="M75.9876 203.186L94.0002 221.5M94.0002 221.5C98.5054 216.906 107.508 207.779 112.013 203.186M94.0002 221.5L94.0001 183.5C94 179.082 97.5818 175.5 102 175.5L373.5 175.5C377.918 175.5 381.5 171.919 381.5 167.5L381.5 158" stroke="#1F2933" stroke-width="2"/>
<path opacity="0.2" d="M75.9876 431.186L94.0002 449.5M94.0002 449.5C98.5054 444.906 107.508 435.779 112.013 431.186M94.0002 449.5L94.0001 411.5C94 407.082 97.5818 403.5 102 403.5L373.5 403.5C377.918 403.5 381.5 399.919 381.5 395.5L381.5 386" stroke="#1F2933" stroke-width="2"/>
<path opacity="0.2" d="M215.988 659.186L234 677.5M234 677.5C238.505 672.906 247.508 663.779 252.013 659.186M234 677.5L234 639.5C234 635.082 237.582 631.5 242 631.5L373.5 631.5C377.918 631.5 381.5 627.919 381.5 623.5L381.5 614" stroke="#1F2933" stroke-width="2"/>
</svg>
