<svg width="36" height="36" viewBox="0 0 36 36" fill="none" xmlns="http://www.w3.org/2000/svg">
<rect width="36" height="36" rx="18" fill="#1F2933" fill-opacity="0.1"/>
<path d="M10 17V18H12V17V15H20.5625L19.7812 15.8125L19.0625 16.5L20.5 17.9375L21.1875 17.2188L23.6875 14.7188L24.4062 14L23.6875 13.3125L21.1875 10.8125L20.5 10.0938L19.0625 11.5L19.7812 12.2188L20.5625 13H11H10V14V17ZM26 19V18H24V19V21H15.4062L16.1875 20.2188L16.9062 19.5L15.5 18.0938L14.7812 18.8125L12.2812 21.3125L11.5625 22L12.2812 22.7188L14.7812 25.2188L15.5 25.9375L16.9062 24.5L16.1875 23.8125L15.4062 23H25H26V22V19Z" fill="#1F2933"/>
</svg>
